# Wavefront OBJ file automatically generated by Tiled2Unity

# Vertices (Count = 208)
v 0 -0.32 0
v -0.32 -0.32 0
v -0.32 0 0
v 0 0 0
v -0.64 -0.32 0
v -0.64 0 0
v -0.96 -0.32 0
v -0.96 0 0
v -1.28 -0.32 0
v -1.28 0 0
v -1.6 -0.32 0
v -1.6 0 0
v -1.92 -0.32 0
v -1.92 0 0
v -2.24 -0.32 0
v -2.24 0 0
v -2.56 -0.32 0
v -2.56 0 0
v -2.88 -0.32 0
v -2.88 0 0
v -3.2 -0.32 0
v -3.2 0 0
v -3.52 -0.32 0
v -3.52 0 0
v -3.84 -0.32 0
v -3.84 0 0
v -4.16 -0.32 0
v -4.16 0 0
v -4.48 -0.32 0
v -4.48 0 0
v -4.8 -0.32 0
v -4.8 0 0
v 0 -0.64 0
v -0.32 -0.64 0
v -0.64 -0.64 0
v -0.96 -0.64 0
v -1.28 -0.64 0
v -1.6 -0.64 0
v -1.92 -0.64 0
v -2.24 -0.64 0
v -2.56 -0.64 0
v -2.88 -0.64 0
v -3.2 -0.64 0
v -3.52 -0.64 0
v -3.84 -0.64 0
v -4.16 -0.64 0
v -4.48 -0.64 0
v -4.8 -0.64 0
v 0 -0.96 0
v -0.32 -0.96 0
v -0.64 -0.96 0
v -0.96 -0.96 0
v -1.28 -0.96 0
v -1.6 -0.96 0
v -1.92 -0.96 0
v -2.24 -0.96 0
v -2.56 -0.96 0
v -2.88 -0.96 0
v -3.2 -0.96 0
v -3.52 -0.96 0
v -3.84 -0.96 0
v -4.16 -0.96 0
v -4.48 -0.96 0
v -4.8 -0.96 0
v 0 -1.28 0
v -0.32 -1.28 0
v -0.64 -1.28 0
v -0.96 -1.28 0
v -1.28 -1.28 0
v -1.6 -1.28 0
v -1.92 -1.28 0
v -2.24 -1.28 0
v -2.56 -1.28 0
v -2.88 -1.28 0
v -3.2 -1.28 0
v -3.52 -1.28 0
v -3.84 -1.28 0
v -4.16 -1.28 0
v -4.48 -1.28 0
v -4.8 -1.28 0
v 0 -1.6 0
v -0.32 -1.6 0
v -0.64 -1.6 0
v -0.96 -1.6 0
v -1.28 -1.6 0
v -1.6 -1.6 0
v -1.92 -1.6 0
v -2.24 -1.6 0
v -2.56 -1.6 0
v -2.88 -1.6 0
v -3.2 -1.6 0
v -3.52 -1.6 0
v -3.84 -1.6 0
v -4.16 -1.6 0
v -4.48 -1.6 0
v -4.8 -1.6 0
v 0 -1.92 0
v -0.32 -1.92 0
v -0.64 -1.92 0
v -0.96 -1.92 0
v -1.28 -1.92 0
v -1.6 -1.92 0
v -1.92 -1.92 0
v -2.24 -1.92 0
v -2.56 -1.92 0
v -2.88 -1.92 0
v -3.2 -1.92 0
v -3.52 -1.92 0
v -3.84 -1.92 0
v -4.16 -1.92 0
v -4.48 -1.92 0
v -4.8 -1.92 0
v 0 -2.24 0
v -0.32 -2.24 0
v -0.64 -2.24 0
v -0.96 -2.24 0
v -1.28 -2.24 0
v -1.6 -2.24 0
v -1.92 -2.24 0
v -2.24 -2.24 0
v -2.56 -2.24 0
v -2.88 -2.24 0
v -3.2 -2.24 0
v -3.52 -2.24 0
v -3.84 -2.24 0
v -4.16 -2.24 0
v -4.48 -2.24 0
v -4.8 -2.24 0
v 0 -2.56 0
v -0.32 -2.56 0
v -0.64 -2.56 0
v -0.96 -2.56 0
v -1.28 -2.56 0
v -1.6 -2.56 0
v -1.92 -2.56 0
v -2.24 -2.56 0
v -2.56 -2.56 0
v -2.88 -2.56 0
v -3.2 -2.56 0
v -3.52 -2.56 0
v -3.84 -2.56 0
v -4.16 -2.56 0
v -4.48 -2.56 0
v -4.8 -2.56 0
v 0 -2.88 0
v -0.32 -2.88 0
v -0.64 -2.88 0
v -0.96 -2.88 0
v -1.28 -2.88 0
v -1.6 -2.88 0
v -1.92 -2.88 0
v -2.24 -2.88 0
v -2.56 -2.88 0
v -2.88 -2.88 0
v -3.2 -2.88 0
v -3.52 -2.88 0
v -3.84 -2.88 0
v -4.16 -2.88 0
v -4.48 -2.88 0
v -4.8 -2.88 0
v 0 -3.2 0
v -0.32 -3.2 0
v -0.64 -3.2 0
v -0.96 -3.2 0
v -1.28 -3.2 0
v -1.6 -3.2 0
v -1.92 -3.2 0
v -2.24 -3.2 0
v -2.56 -3.2 0
v -2.88 -3.2 0
v -3.2 -3.2 0
v -3.52 -3.2 0
v -3.84 -3.2 0
v -4.16 -3.2 0
v -4.48 -3.2 0
v -4.8 -3.2 0
v 0 -3.52 0
v -0.32 -3.52 0
v -0.64 -3.52 0
v -0.96 -3.52 0
v -1.28 -3.52 0
v -1.6 -3.52 0
v -1.92 -3.52 0
v -2.24 -3.52 0
v -2.56 -3.52 0
v -2.88 -3.52 0
v -3.2 -3.52 0
v -3.52 -3.52 0
v -3.84 -3.52 0
v -4.16 -3.52 0
v -4.48 -3.52 0
v -4.8 -3.52 0
v 0 -3.84 0
v -0.32 -3.84 0
v -0.64 -3.84 0
v -0.96 -3.84 0
v -1.28 -3.84 0
v -1.6 -3.84 0
v -1.92 -3.84 0
v -2.24 -3.84 0
v -2.56 -3.84 0
v -2.88 -3.84 0
v -3.2 -3.84 0
v -3.52 -3.84 0
v -3.84 -3.84 0
v -4.16 -3.84 0
v -4.48 -3.84 0
v -4.8 -3.84 0

# Texture cooridinates (Count = 104)
vt 0.3126221 0.8751221
vt 0.3436279 0.8751221
vt 0.3436279 0.9061279
vt 0.3126221 0.9061279
vt 0.7813721 0.8751221
vt 0.8123779 0.8751221
vt 0.8123779 0.9061279
vt 0.7813721 0.9061279
vt 0.7813721 0.9688721
vt 0.8123779 0.9688721
vt 0.8123779 0.9998779
vt 0.7813721 0.9998779
vt 0.7813721 0.8438721
vt 0.8123779 0.8438721
vt 0.8123779 0.8748779
vt 0.7813721 0.8748779
vt 0.8126221 0.9688721
vt 0.8436279 0.9688721
vt 0.8436279 0.9998779
vt 0.8126221 0.9998779
vt 0.8126221 0.8751221
vt 0.8436279 0.8751221
vt 0.8436279 0.9061279
vt 0.8126221 0.9061279
vt 0.7501221 0.8751221
vt 0.7811279 0.8751221
vt 0.7811279 0.9061279
vt 0.7501221 0.9061279
vt 0.7813721 0.9376221
vt 0.8123779 0.9376221
vt 0.8123779 0.9686279
vt 0.7813721 0.9686279
vt 0.7813721 0.9063721
vt 0.8123779 0.9063721
vt 0.8123779 0.9373779
vt 0.7813721 0.9373779
vt 0.8126221 0.9063721
vt 0.8436279 0.9063721
vt 0.8436279 0.9373779
vt 0.8126221 0.9373779
vt 0.7501221 0.8438721
vt 0.7811279 0.8438721
vt 0.7811279 0.8748779
vt 0.7501221 0.8748779
vt 0.8126221 0.9376221
vt 0.8436279 0.9376221
vt 0.8436279 0.9686279
vt 0.8126221 0.9686279
vt 0.8126221 0.8438721
vt 0.8436279 0.8438721
vt 0.8436279 0.8748779
vt 0.8126221 0.8748779
vt 0.7501221 0.9063721
vt 0.7811279 0.9063721
vt 0.7811279 0.9373779
vt 0.7501221 0.9373779
vt 0.1853072 0.0001220703
vt 0.2035816 0.0001220703
vt 0.2035816 0.02487791
vt 0.1853072 0.02487791
vt 0.2038258 0.0001220703
vt 0.2221002 0.0001220703
vt 0.2221002 0.02487791
vt 0.2038258 0.02487791
vt 0.06262207 0.7188721
vt 0.09362793 0.7188721
vt 0.09362793 0.7498779
vt 0.06262207 0.7498779
vt 0.04360033 0.03858364
vt 0.06509532 0.03858364
vt 0.06509532 0.076801
vt 0.04360033 0.076801
vt 0.06533946 0.03858364
vt 0.08683445 0.03858364
vt 0.08683445 0.076801
vt 0.06533946 0.076801
vt 0.04360033 0.0001220703
vt 0.06509532 0.0001220703
vt 0.06509532 0.0383395
vt 0.04360033 0.0383395
vt 0.06533946 0.0001220703
vt 0.08683445 0.0001220703
vt 0.08683445 0.0383395
vt 0.06533946 0.0383395
vt 0.889011 0.6751221
vt 0.9072853 0.6751221
vt 0.9072853 0.6998779
vt 0.889011 0.6998779
vt 0.9075295 0.6751221
vt 0.9258038 0.6751221
vt 0.9258038 0.6998779
vt 0.9075295 0.6998779
vt 0.889011 0.650122
vt 0.9072853 0.650122
vt 0.9072853 0.6748779
vt 0.889011 0.6748779
vt 0.9075295 0.650122
vt 0.9258038 0.650122
vt 0.9258038 0.6748779
vt 0.9075295 0.6748779
vt 0.0001220703 0.0001220703
vt 0.9998779 0.0001220703
vt 0.9998779 0.9998779
vt 0.0001220703 0.9998779

# Normal
vn 0 0 -1

# Groups (Count = 7)

g mesh_0001
f 1/1/1 2/2/1 3/3/1 4/4/1
f 2/1/1 5/2/1 6/3/1 3/4/1
f 5/1/1 7/2/1 8/3/1 6/4/1
f 7/1/1 9/2/1 10/3/1 8/4/1
f 9/1/1 11/2/1 12/3/1 10/4/1
f 11/1/1 13/2/1 14/3/1 12/4/1
f 13/1/1 15/2/1 16/3/1 14/4/1
f 15/1/1 17/2/1 18/3/1 16/4/1
f 17/1/1 19/2/1 20/3/1 18/4/1
f 19/1/1 21/2/1 22/3/1 20/4/1
f 21/1/1 23/2/1 24/3/1 22/4/1
f 23/1/1 25/2/1 26/3/1 24/4/1
f 25/1/1 27/2/1 28/3/1 26/4/1
f 27/1/1 29/2/1 30/3/1 28/4/1
f 29/1/1 31/2/1 32/3/1 30/4/1
f 33/1/1 34/2/1 2/3/1 1/4/1
f 34/1/1 35/2/1 5/3/1 2/4/1
f 35/1/1 36/2/1 7/3/1 5/4/1
f 36/1/1 37/2/1 9/3/1 7/4/1
f 37/1/1 38/2/1 11/3/1 9/4/1
f 38/1/1 39/2/1 13/3/1 11/4/1
f 39/1/1 40/2/1 15/3/1 13/4/1
f 40/1/1 41/2/1 17/3/1 15/4/1
f 41/1/1 42/2/1 19/3/1 17/4/1
f 42/1/1 43/2/1 21/3/1 19/4/1
f 43/1/1 44/2/1 23/3/1 21/4/1
f 44/1/1 45/2/1 25/3/1 23/4/1
f 45/1/1 46/2/1 27/3/1 25/4/1
f 46/1/1 47/2/1 29/3/1 27/4/1
f 47/1/1 48/2/1 31/3/1 29/4/1
f 49/1/1 50/2/1 34/3/1 33/4/1
f 50/1/1 51/2/1 35/3/1 34/4/1
f 51/1/1 52/2/1 36/3/1 35/4/1
f 52/1/1 53/2/1 37/3/1 36/4/1
f 53/1/1 54/2/1 38/3/1 37/4/1
f 54/1/1 55/2/1 39/3/1 38/4/1
f 55/1/1 56/2/1 40/3/1 39/4/1
f 56/1/1 57/2/1 41/3/1 40/4/1
f 57/1/1 58/2/1 42/3/1 41/4/1
f 58/1/1 59/2/1 43/3/1 42/4/1
f 59/1/1 60/2/1 44/3/1 43/4/1
f 60/1/1 61/2/1 45/3/1 44/4/1
f 61/1/1 62/2/1 46/3/1 45/4/1
f 62/1/1 63/2/1 47/3/1 46/4/1
f 63/1/1 64/2/1 48/3/1 47/4/1
f 65/1/1 66/2/1 50/3/1 49/4/1
f 66/1/1 67/2/1 51/3/1 50/4/1
f 67/1/1 68/2/1 52/3/1 51/4/1
f 68/1/1 69/2/1 53/3/1 52/4/1
f 69/1/1 70/2/1 54/3/1 53/4/1
f 70/1/1 71/2/1 55/3/1 54/4/1
f 71/1/1 72/2/1 56/3/1 55/4/1
f 72/1/1 73/2/1 57/3/1 56/4/1
f 73/1/1 74/2/1 58/3/1 57/4/1
f 74/1/1 75/2/1 59/3/1 58/4/1
f 75/1/1 76/2/1 60/3/1 59/4/1
f 76/1/1 77/2/1 61/3/1 60/4/1
f 77/1/1 78/2/1 62/3/1 61/4/1
f 78/1/1 79/2/1 63/3/1 62/4/1
f 79/1/1 80/2/1 64/3/1 63/4/1
f 81/1/1 82/2/1 66/3/1 65/4/1
f 82/1/1 83/2/1 67/3/1 66/4/1
f 83/1/1 84/2/1 68/3/1 67/4/1
f 84/1/1 85/2/1 69/3/1 68/4/1
f 85/1/1 86/2/1 70/3/1 69/4/1
f 86/1/1 87/2/1 71/3/1 70/4/1
f 87/1/1 88/2/1 72/3/1 71/4/1
f 88/1/1 89/2/1 73/3/1 72/4/1
f 89/1/1 90/2/1 74/3/1 73/4/1
f 90/1/1 91/2/1 75/3/1 74/4/1
f 91/1/1 92/2/1 76/3/1 75/4/1
f 92/1/1 93/2/1 77/3/1 76/4/1
f 93/1/1 94/2/1 78/3/1 77/4/1
f 94/1/1 95/2/1 79/3/1 78/4/1
f 95/1/1 96/2/1 80/3/1 79/4/1
f 97/1/1 98/2/1 82/3/1 81/4/1
f 98/1/1 99/2/1 83/3/1 82/4/1
f 99/1/1 100/2/1 84/3/1 83/4/1
f 100/1/1 101/2/1 85/3/1 84/4/1
f 101/1/1 102/2/1 86/3/1 85/4/1
f 102/1/1 103/2/1 87/3/1 86/4/1
f 103/1/1 104/2/1 88/3/1 87/4/1
f 104/1/1 105/2/1 89/3/1 88/4/1
f 105/1/1 106/2/1 90/3/1 89/4/1
f 106/1/1 107/2/1 91/3/1 90/4/1
f 107/1/1 108/2/1 92/3/1 91/4/1
f 108/1/1 109/2/1 93/3/1 92/4/1
f 109/1/1 110/2/1 94/3/1 93/4/1
f 110/1/1 111/2/1 95/3/1 94/4/1
f 111/1/1 112/2/1 96/3/1 95/4/1
f 113/1/1 114/2/1 98/3/1 97/4/1
f 114/1/1 115/2/1 99/3/1 98/4/1
f 115/1/1 116/2/1 100/3/1 99/4/1
f 116/1/1 117/2/1 101/3/1 100/4/1
f 117/1/1 118/2/1 102/3/1 101/4/1
f 118/1/1 119/2/1 103/3/1 102/4/1
f 119/1/1 120/2/1 104/3/1 103/4/1
f 120/1/1 121/2/1 105/3/1 104/4/1
f 121/1/1 122/2/1 106/3/1 105/4/1
f 122/1/1 123/2/1 107/3/1 106/4/1
f 123/1/1 124/2/1 108/3/1 107/4/1
f 124/1/1 125/2/1 109/3/1 108/4/1
f 125/1/1 126/2/1 110/3/1 109/4/1
f 126/1/1 127/2/1 111/3/1 110/4/1
f 127/1/1 128/2/1 112/3/1 111/4/1
f 129/1/1 130/2/1 114/3/1 113/4/1
f 130/1/1 131/2/1 115/3/1 114/4/1
f 131/1/1 132/2/1 116/3/1 115/4/1
f 132/1/1 133/2/1 117/3/1 116/4/1
f 133/1/1 134/2/1 118/3/1 117/4/1
f 134/1/1 135/2/1 119/3/1 118/4/1
f 135/1/1 136/2/1 120/3/1 119/4/1
f 136/1/1 137/2/1 121/3/1 120/4/1
f 137/1/1 138/2/1 122/3/1 121/4/1
f 138/1/1 139/2/1 123/3/1 122/4/1
f 139/1/1 140/2/1 124/3/1 123/4/1
f 140/1/1 141/2/1 125/3/1 124/4/1
f 141/1/1 142/2/1 126/3/1 125/4/1
f 142/1/1 143/2/1 127/3/1 126/4/1
f 143/1/1 144/2/1 128/3/1 127/4/1
f 145/1/1 146/2/1 130/3/1 129/4/1
f 146/1/1 147/2/1 131/3/1 130/4/1
f 147/1/1 148/2/1 132/3/1 131/4/1
f 148/1/1 149/2/1 133/3/1 132/4/1
f 149/1/1 150/2/1 134/3/1 133/4/1
f 150/1/1 151/2/1 135/3/1 134/4/1
f 151/1/1 152/2/1 136/3/1 135/4/1
f 152/1/1 153/2/1 137/3/1 136/4/1
f 153/1/1 154/2/1 138/3/1 137/4/1
f 154/1/1 155/2/1 139/3/1 138/4/1
f 155/1/1 156/2/1 140/3/1 139/4/1
f 156/1/1 157/2/1 141/3/1 140/4/1
f 157/1/1 158/2/1 142/3/1 141/4/1
f 158/1/1 159/2/1 143/3/1 142/4/1
f 159/1/1 160/2/1 144/3/1 143/4/1
f 161/1/1 162/2/1 146/3/1 145/4/1
f 162/1/1 163/2/1 147/3/1 146/4/1
f 163/1/1 164/2/1 148/3/1 147/4/1
f 164/1/1 165/2/1 149/3/1 148/4/1
f 165/1/1 166/2/1 150/3/1 149/4/1
f 166/1/1 167/2/1 151/3/1 150/4/1
f 167/1/1 168/2/1 152/3/1 151/4/1
f 168/1/1 169/2/1 153/3/1 152/4/1
f 169/1/1 170/2/1 154/3/1 153/4/1
f 170/1/1 171/2/1 155/3/1 154/4/1
f 171/1/1 172/2/1 156/3/1 155/4/1
f 172/1/1 173/2/1 157/3/1 156/4/1
f 173/1/1 174/2/1 158/3/1 157/4/1
f 174/1/1 175/2/1 159/3/1 158/4/1
f 175/1/1 176/2/1 160/3/1 159/4/1
f 177/1/1 178/2/1 162/3/1 161/4/1
f 178/1/1 179/2/1 163/3/1 162/4/1
f 179/1/1 180/2/1 164/3/1 163/4/1
f 180/1/1 181/2/1 165/3/1 164/4/1
f 181/1/1 182/2/1 166/3/1 165/4/1
f 182/1/1 183/2/1 167/3/1 166/4/1
f 183/1/1 184/2/1 168/3/1 167/4/1
f 184/1/1 185/2/1 169/3/1 168/4/1
f 185/1/1 186/2/1 170/3/1 169/4/1
f 186/1/1 187/2/1 171/3/1 170/4/1
f 187/1/1 188/2/1 172/3/1 171/4/1
f 188/1/1 189/2/1 173/3/1 172/4/1
f 189/1/1 190/2/1 174/3/1 173/4/1
f 190/1/1 191/2/1 175/3/1 174/4/1
f 191/1/1 192/2/1 176/3/1 175/4/1
f 193/1/1 194/2/1 178/3/1 177/4/1
f 194/1/1 195/2/1 179/3/1 178/4/1
f 195/1/1 196/2/1 180/3/1 179/4/1
f 196/1/1 197/2/1 181/3/1 180/4/1
f 197/1/1 198/2/1 182/3/1 181/4/1
f 198/1/1 199/2/1 183/3/1 182/4/1
f 199/1/1 200/2/1 184/3/1 183/4/1
f 200/1/1 201/2/1 185/3/1 184/4/1
f 201/1/1 202/2/1 186/3/1 185/4/1
f 202/1/1 203/2/1 187/3/1 186/4/1
f 203/1/1 204/2/1 188/3/1 187/4/1
f 204/1/1 205/2/1 189/3/1 188/4/1
f 205/1/1 206/2/1 190/3/1 189/4/1
f 206/1/1 207/2/1 191/3/1 190/4/1
f 207/1/1 208/2/1 192/3/1 191/4/1

g mesh_0002
f 1/5/1 2/6/1 3/7/1 4/8/1
f 2/5/1 5/6/1 6/7/1 3/8/1
f 5/5/1 7/6/1 8/7/1 6/8/1
f 7/5/1 9/6/1 10/7/1 8/8/1
f 9/5/1 11/6/1 12/7/1 10/8/1
f 11/5/1 13/6/1 14/7/1 12/8/1
f 13/5/1 15/6/1 16/7/1 14/8/1
f 15/5/1 17/6/1 18/7/1 16/8/1
f 17/5/1 19/6/1 20/7/1 18/8/1
f 19/5/1 21/6/1 22/7/1 20/8/1
f 21/5/1 23/6/1 24/7/1 22/8/1
f 23/5/1 25/6/1 26/7/1 24/8/1
f 25/5/1 27/6/1 28/7/1 26/8/1
f 27/5/1 29/6/1 30/7/1 28/8/1
f 29/5/1 31/6/1 32/7/1 30/8/1
f 33/5/1 34/6/1 2/7/1 1/8/1
f 34/9/1 35/10/1 5/11/1 2/12/1
f 35/13/1 36/14/1 7/15/1 5/16/1
f 36/13/1 37/14/1 9/15/1 7/16/1
f 37/13/1 38/14/1 11/15/1 9/16/1
f 38/13/1 39/14/1 13/15/1 11/16/1
f 39/17/1 40/18/1 15/19/1 13/20/1
f 40/5/1 41/6/1 17/7/1 15/8/1
f 41/5/1 42/6/1 19/7/1 17/8/1
f 42/9/1 43/10/1 21/11/1 19/12/1
f 43/13/1 44/14/1 23/15/1 21/16/1
f 44/13/1 45/14/1 25/15/1 23/16/1
f 45/17/1 46/18/1 27/19/1 25/20/1
f 46/5/1 47/6/1 29/7/1 27/8/1
f 47/5/1 48/6/1 31/7/1 29/8/1
f 49/5/1 50/6/1 34/7/1 33/8/1
f 50/21/1 51/22/1 35/23/1 34/24/1
f 55/25/1 56/26/1 40/27/1 39/28/1
f 56/5/1 57/6/1 41/7/1 40/8/1
f 57/5/1 58/6/1 42/7/1 41/8/1
f 58/29/1 59/30/1 43/31/1 42/32/1
f 59/33/1 60/34/1 44/35/1 43/36/1
f 60/37/1 61/38/1 45/39/1 44/40/1
f 61/25/1 62/26/1 46/27/1 45/28/1
f 62/5/1 63/6/1 47/7/1 46/8/1
f 63/5/1 64/6/1 48/7/1 47/8/1
f 65/5/1 66/6/1 50/7/1 49/8/1
f 66/21/1 67/22/1 51/23/1 50/24/1
f 71/41/1 72/42/1 56/43/1 55/44/1
f 72/13/1 73/14/1 57/15/1 56/16/1
f 73/17/1 74/18/1 58/19/1 57/20/1
f 74/5/1 75/6/1 59/7/1 58/8/1
f 75/5/1 76/6/1 60/7/1 59/8/1
f 76/29/1 77/30/1 61/31/1 60/32/1
f 77/45/1 78/46/1 62/47/1 61/48/1
f 78/5/1 79/6/1 63/7/1 62/8/1
f 79/5/1 80/6/1 64/7/1 63/8/1
f 81/5/1 82/6/1 66/7/1 65/8/1
f 82/29/1 83/30/1 67/31/1 66/32/1
f 83/37/1 84/38/1 68/39/1 67/40/1
f 89/41/1 90/42/1 74/43/1 73/44/1
f 90/13/1 91/14/1 75/15/1 74/16/1
f 91/17/1 92/18/1 76/19/1 75/20/1
f 92/5/1 93/6/1 77/7/1 76/8/1
f 93/5/1 94/6/1 78/7/1 77/8/1
f 94/5/1 95/6/1 79/7/1 78/8/1
f 95/5/1 96/6/1 80/7/1 79/8/1
f 97/5/1 98/6/1 82/7/1 81/8/1
f 98/5/1 99/6/1 83/7/1 82/8/1
f 99/29/1 100/30/1 84/31/1 83/32/1
f 100/33/1 101/34/1 85/35/1 84/36/1
f 101/33/1 102/34/1 86/35/1 85/36/1
f 102/33/1 103/34/1 87/35/1 86/36/1
f 103/33/1 104/34/1 88/35/1 87/36/1
f 104/37/1 105/38/1 89/39/1 88/40/1
f 107/25/1 108/26/1 92/27/1 91/28/1
f 108/5/1 109/6/1 93/7/1 92/8/1
f 109/5/1 110/6/1 94/7/1 93/8/1
f 110/5/1 111/6/1 95/7/1 94/8/1
f 111/5/1 112/6/1 96/7/1 95/8/1
f 113/5/1 114/6/1 98/7/1 97/8/1
f 114/5/1 115/6/1 99/7/1 98/8/1
f 115/5/1 116/6/1 100/7/1 99/8/1
f 116/5/1 117/6/1 101/7/1 100/8/1
f 117/5/1 118/6/1 102/7/1 101/8/1
f 118/5/1 119/6/1 103/7/1 102/8/1
f 119/5/1 120/6/1 104/7/1 103/8/1
f 120/29/1 121/30/1 105/31/1 104/32/1
f 121/37/1 122/38/1 106/39/1 105/40/1
f 123/25/1 124/26/1 108/27/1 107/28/1
f 124/9/1 125/10/1 109/11/1 108/12/1
f 125/13/1 126/14/1 110/15/1 109/16/1
f 126/13/1 127/14/1 111/15/1 110/16/1
f 127/17/1 128/18/1 112/19/1 111/20/1
f 129/5/1 130/6/1 114/7/1 113/8/1
f 130/5/1 131/6/1 115/7/1 114/8/1
f 131/5/1 132/6/1 116/7/1 115/8/1
f 132/5/1 133/6/1 117/7/1 116/8/1
f 133/5/1 134/6/1 118/7/1 117/8/1
f 134/5/1 135/6/1 119/7/1 118/8/1
f 135/5/1 136/6/1 120/7/1 119/8/1
f 136/5/1 137/6/1 121/7/1 120/8/1
f 137/21/1 138/22/1 122/23/1 121/24/1
f 139/41/1 140/42/1 124/43/1 123/44/1
f 140/49/1 141/50/1 125/51/1 124/52/1
f 143/25/1 144/26/1 128/27/1 127/28/1
f 145/5/1 146/6/1 130/7/1 129/8/1
f 146/5/1 147/6/1 131/7/1 130/8/1
f 147/5/1 148/6/1 132/7/1 131/8/1
f 148/5/1 149/6/1 133/7/1 132/8/1
f 149/5/1 150/6/1 134/7/1 133/8/1
f 150/5/1 151/6/1 135/7/1 134/8/1
f 151/5/1 152/6/1 136/7/1 135/8/1
f 152/5/1 153/6/1 137/7/1 136/8/1
f 153/29/1 154/30/1 138/31/1 137/32/1
f 154/37/1 155/38/1 139/39/1 138/40/1
f 156/53/1 157/54/1 141/55/1 140/56/1
f 157/33/1 158/34/1 142/35/1 141/36/1
f 158/33/1 159/34/1 143/35/1 142/36/1
f 159/45/1 160/46/1 144/47/1 143/48/1
f 161/5/1 162/6/1 146/7/1 145/8/1
f 162/5/1 163/6/1 147/7/1 146/8/1
f 163/5/1 164/6/1 148/7/1 147/8/1
f 164/5/1 165/6/1 149/7/1 148/8/1
f 165/5/1 166/6/1 150/7/1 149/8/1
f 166/5/1 167/6/1 151/7/1 150/8/1
f 167/5/1 168/6/1 152/7/1 151/8/1
f 168/5/1 169/6/1 153/7/1 152/8/1
f 169/9/1 170/10/1 154/11/1 153/12/1
f 170/49/1 171/50/1 155/51/1 154/52/1
f 172/25/1 173/26/1 157/27/1 156/28/1
f 173/5/1 174/6/1 158/7/1 157/8/1
f 174/5/1 175/6/1 159/7/1 158/8/1
f 175/5/1 176/6/1 160/7/1 159/8/1
f 177/5/1 178/6/1 162/7/1 161/8/1
f 178/5/1 179/6/1 163/7/1 162/8/1
f 179/5/1 180/6/1 164/7/1 163/8/1
f 180/5/1 181/6/1 165/7/1 164/8/1
f 181/5/1 182/6/1 166/7/1 165/8/1
f 182/5/1 183/6/1 167/7/1 166/8/1
f 183/5/1 184/6/1 168/7/1 167/8/1
f 184/9/1 185/10/1 169/11/1 168/12/1
f 185/49/1 186/50/1 170/51/1 169/52/1
f 187/53/1 188/54/1 172/55/1 171/56/1
f 188/45/1 189/46/1 173/47/1 172/48/1
f 189/5/1 190/6/1 174/7/1 173/8/1
f 190/5/1 191/6/1 175/7/1 174/8/1
f 191/5/1 192/6/1 176/7/1 175/8/1
f 193/5/1 194/6/1 178/7/1 177/8/1
f 194/5/1 195/6/1 179/7/1 178/8/1
f 195/5/1 196/6/1 180/7/1 179/8/1
f 196/5/1 197/6/1 181/7/1 180/8/1
f 197/5/1 198/6/1 182/7/1 181/8/1
f 198/5/1 199/6/1 183/7/1 182/8/1
f 199/5/1 200/6/1 184/7/1 183/8/1
f 200/21/1 201/22/1 185/23/1 184/24/1
f 203/25/1 204/26/1 188/27/1 187/28/1
f 204/5/1 205/6/1 189/7/1 188/8/1
f 205/5/1 206/6/1 190/7/1 189/8/1
f 206/5/1 207/6/1 191/7/1 190/8/1
f 207/5/1 208/6/1 192/7/1 191/8/1

g mesh_0003
f 201/57/1 202/58/1 186/59/1 185/60/1
f 202/61/1 203/62/1 187/63/1 186/64/1

g mesh_0004
f 43/65/1 44/66/1 23/67/1 21/68/1
f 44/65/1 45/66/1 25/67/1 23/68/1

g mesh_0005
f 138/69/1 139/70/1 123/71/1 122/72/1
f 139/73/1 140/74/1 124/75/1 123/76/1
f 154/77/1 155/78/1 139/79/1 138/80/1
f 155/81/1 156/82/1 140/83/1 139/84/1

g mesh_0006
f 35/85/1 36/86/1 7/87/1 5/88/1
f 36/89/1 37/90/1 9/91/1 7/92/1
f 51/93/1 52/94/1 36/95/1 35/96/1
f 52/97/1 53/98/1 37/99/1 36/100/1
f 125/85/1 126/86/1 110/87/1 109/88/1
f 126/89/1 127/90/1 111/91/1 110/92/1
f 141/93/1 142/94/1 126/95/1 125/96/1
f 142/97/1 143/98/1 127/99/1 126/100/1

g mesh_0007
f 1/101/1 2/102/1 3/103/1 4/104/1
f 2/101/1 5/102/1 6/103/1 3/104/1
f 5/101/1 7/102/1 8/103/1 6/104/1
f 7/101/1 9/102/1 10/103/1 8/104/1
f 9/101/1 11/102/1 12/103/1 10/104/1
f 11/101/1 13/102/1 14/103/1 12/104/1
f 13/101/1 15/102/1 16/103/1 14/104/1
f 15/101/1 17/102/1 18/103/1 16/104/1
f 17/101/1 19/102/1 20/103/1 18/104/1
f 19/101/1 21/102/1 22/103/1 20/104/1
f 21/101/1 23/102/1 24/103/1 22/104/1
f 23/101/1 25/102/1 26/103/1 24/104/1
f 25/101/1 27/102/1 28/103/1 26/104/1
f 27/101/1 29/102/1 30/103/1 28/104/1
f 29/101/1 31/102/1 32/103/1 30/104/1
f 33/101/1 34/102/1 2/103/1 1/104/1
f 34/101/1 35/102/1 5/103/1 2/104/1
f 39/101/1 40/102/1 15/103/1 13/104/1
f 40/101/1 41/102/1 17/103/1 15/104/1
f 41/101/1 42/102/1 19/103/1 17/104/1
f 42/101/1 43/102/1 21/103/1 19/104/1
f 43/101/1 44/102/1 23/103/1 21/104/1
f 44/101/1 45/102/1 25/103/1 23/104/1
f 45/101/1 46/102/1 27/103/1 25/104/1
f 46/101/1 47/102/1 29/103/1 27/104/1
f 47/101/1 48/102/1 31/103/1 29/104/1
f 49/101/1 50/102/1 34/103/1 33/104/1
f 50/101/1 51/102/1 35/103/1 34/104/1
f 55/101/1 56/102/1 40/103/1 39/104/1
f 56/101/1 57/102/1 41/103/1 40/104/1
f 57/101/1 58/102/1 42/103/1 41/104/1
f 58/101/1 59/102/1 43/103/1 42/104/1
f 59/101/1 60/102/1 44/103/1 43/104/1
f 60/101/1 61/102/1 45/103/1 44/104/1
f 61/101/1 62/102/1 46/103/1 45/104/1
f 62/101/1 63/102/1 47/103/1 46/104/1
f 63/101/1 64/102/1 48/103/1 47/104/1
f 65/101/1 66/102/1 50/103/1 49/104/1
f 66/101/1 67/102/1 51/103/1 50/104/1
f 73/101/1 74/102/1 58/103/1 57/104/1
f 74/101/1 75/102/1 59/103/1 58/104/1
f 75/101/1 76/102/1 60/103/1 59/104/1
f 76/101/1 77/102/1 61/103/1 60/104/1
f 77/101/1 78/102/1 62/103/1 61/104/1
f 78/101/1 79/102/1 63/103/1 62/104/1
f 79/101/1 80/102/1 64/103/1 63/104/1
f 81/101/1 82/102/1 66/103/1 65/104/1
f 82/101/1 83/102/1 67/103/1 66/104/1
f 91/101/1 92/102/1 76/103/1 75/104/1
f 92/101/1 93/102/1 77/103/1 76/104/1
f 93/101/1 94/102/1 78/103/1 77/104/1
f 94/101/1 95/102/1 79/103/1 78/104/1
f 95/101/1 96/102/1 80/103/1 79/104/1
f 97/101/1 98/102/1 82/103/1 81/104/1
f 98/101/1 99/102/1 83/103/1 82/104/1
f 99/101/1 100/102/1 84/103/1 83/104/1
f 100/101/1 101/102/1 85/103/1 84/104/1
f 101/101/1 102/102/1 86/103/1 85/104/1
f 102/101/1 103/102/1 87/103/1 86/104/1
f 103/101/1 104/102/1 88/103/1 87/104/1
f 107/101/1 108/102/1 92/103/1 91/104/1
f 108/101/1 109/102/1 93/103/1 92/104/1
f 109/101/1 110/102/1 94/103/1 93/104/1
f 110/101/1 111/102/1 95/103/1 94/104/1
f 111/101/1 112/102/1 96/103/1 95/104/1
f 113/101/1 114/102/1 98/103/1 97/104/1
f 114/101/1 115/102/1 99/103/1 98/104/1
f 115/101/1 116/102/1 100/103/1 99/104/1
f 116/101/1 117/102/1 101/103/1 100/104/1
f 117/101/1 118/102/1 102/103/1 101/104/1
f 118/101/1 119/102/1 103/103/1 102/104/1
f 119/101/1 120/102/1 104/103/1 103/104/1
f 120/101/1 121/102/1 105/103/1 104/104/1
f 123/101/1 124/102/1 108/103/1 107/104/1
f 124/101/1 125/102/1 109/103/1 108/104/1
f 127/101/1 128/102/1 112/103/1 111/104/1
f 129/101/1 130/102/1 114/103/1 113/104/1
f 130/101/1 131/102/1 115/103/1 114/104/1
f 131/101/1 132/102/1 116/103/1 115/104/1
f 132/101/1 133/102/1 117/103/1 116/104/1
f 133/101/1 134/102/1 118/103/1 117/104/1
f 134/101/1 135/102/1 119/103/1 118/104/1
f 135/101/1 136/102/1 120/103/1 119/104/1
f 136/101/1 137/102/1 121/103/1 120/104/1
f 143/101/1 144/102/1 128/103/1 127/104/1
f 145/101/1 146/102/1 130/103/1 129/104/1
f 146/101/1 147/102/1 131/103/1 130/104/1
f 147/101/1 148/102/1 132/103/1 131/104/1
f 148/101/1 149/102/1 133/103/1 132/104/1
f 149/101/1 150/102/1 134/103/1 133/104/1
f 150/101/1 151/102/1 135/103/1 134/104/1
f 151/101/1 152/102/1 136/103/1 135/104/1
f 152/101/1 153/102/1 137/103/1 136/104/1
f 153/101/1 154/102/1 138/103/1 137/104/1
f 157/101/1 158/102/1 142/103/1 141/104/1
f 158/101/1 159/102/1 143/103/1 142/104/1
f 159/101/1 160/102/1 144/103/1 143/104/1
f 161/101/1 162/102/1 146/103/1 145/104/1
f 162/101/1 163/102/1 147/103/1 146/104/1
f 163/101/1 164/102/1 148/103/1 147/104/1
f 164/101/1 165/102/1 149/103/1 148/104/1
f 165/101/1 166/102/1 150/103/1 149/104/1
f 166/101/1 167/102/1 151/103/1 150/104/1
f 167/101/1 168/102/1 152/103/1 151/104/1
f 168/101/1 169/102/1 153/103/1 152/104/1
f 169/101/1 170/102/1 154/103/1 153/104/1
f 172/101/1 173/102/1 157/103/1 156/104/1
f 173/101/1 174/102/1 158/103/1 157/104/1
f 174/101/1 175/102/1 159/103/1 158/104/1
f 175/101/1 176/102/1 160/103/1 159/104/1
f 177/101/1 178/102/1 162/103/1 161/104/1
f 178/101/1 179/102/1 163/103/1 162/104/1
f 179/101/1 180/102/1 164/103/1 163/104/1
f 180/101/1 181/102/1 165/103/1 164/104/1
f 181/101/1 182/102/1 166/103/1 165/104/1
f 182/101/1 183/102/1 167/103/1 166/104/1
f 183/101/1 184/102/1 168/103/1 167/104/1
f 184/101/1 185/102/1 169/103/1 168/104/1
f 188/101/1 189/102/1 173/103/1 172/104/1
f 189/101/1 190/102/1 174/103/1 173/104/1
f 190/101/1 191/102/1 175/103/1 174/104/1
f 191/101/1 192/102/1 176/103/1 175/104/1
f 193/101/1 194/102/1 178/103/1 177/104/1
f 194/101/1 195/102/1 179/103/1 178/104/1
f 195/101/1 196/102/1 180/103/1 179/104/1
f 196/101/1 197/102/1 181/103/1 180/104/1
f 197/101/1 198/102/1 182/103/1 181/104/1
f 198/101/1 199/102/1 183/103/1 182/104/1
f 199/101/1 200/102/1 184/103/1 183/104/1
f 200/101/1 201/102/1 185/103/1 184/104/1
f 203/101/1 204/102/1 188/103/1 187/104/1
f 204/101/1 205/102/1 189/103/1 188/104/1
f 205/101/1 206/102/1 190/103/1 189/104/1
f 206/101/1 207/102/1 191/103/1 190/104/1
f 207/101/1 208/102/1 192/103/1 191/104/1

