# Wavefront OBJ file automatically generated by Tiled2Unity

# Vertices (Count = 208)
v 0 -0.32 0
v -0.32 -0.32 0
v -0.32 0 0
v 0 0 0
v -0.64 -0.32 0
v -0.64 0 0
v -0.96 -0.32 0
v -0.96 0 0
v -1.28 -0.32 0
v -1.28 0 0
v -1.6 -0.32 0
v -1.6 0 0
v -1.92 -0.32 0
v -1.92 0 0
v -2.24 -0.32 0
v -2.24 0 0
v -2.56 -0.32 0
v -2.56 0 0
v -2.88 -0.32 0
v -2.88 0 0
v -3.2 -0.32 0
v -3.2 0 0
v -3.52 -0.32 0
v -3.52 0 0
v -3.84 -0.32 0
v -3.84 0 0
v -4.16 -0.32 0
v -4.16 0 0
v -4.48 -0.32 0
v -4.48 0 0
v -4.8 -0.32 0
v -4.8 0 0
v 0 -0.64 0
v -0.32 -0.64 0
v -0.64 -0.64 0
v -0.96 -0.64 0
v -1.28 -0.64 0
v -1.6 -0.64 0
v -1.92 -0.64 0
v -2.24 -0.64 0
v -2.56 -0.64 0
v -2.88 -0.64 0
v -3.2 -0.64 0
v -3.52 -0.64 0
v -3.84 -0.64 0
v -4.16 -0.64 0
v -4.48 -0.64 0
v -4.8 -0.64 0
v 0 -0.96 0
v -0.32 -0.96 0
v -0.64 -0.96 0
v -0.96 -0.96 0
v -1.28 -0.96 0
v -1.6 -0.96 0
v -1.92 -0.96 0
v -2.24 -0.96 0
v -2.56 -0.96 0
v -2.88 -0.96 0
v -3.2 -0.96 0
v -3.52 -0.96 0
v -3.84 -0.96 0
v -4.16 -0.96 0
v -4.48 -0.96 0
v -4.8 -0.96 0
v 0 -1.28 0
v -0.32 -1.28 0
v -0.64 -1.28 0
v -0.96 -1.28 0
v -1.28 -1.28 0
v -1.6 -1.28 0
v -1.92 -1.28 0
v -2.24 -1.28 0
v -2.56 -1.28 0
v -2.88 -1.28 0
v -3.2 -1.28 0
v -3.52 -1.28 0
v -3.84 -1.28 0
v -4.16 -1.28 0
v -4.48 -1.28 0
v -4.8 -1.28 0
v 0 -1.6 0
v -0.32 -1.6 0
v -0.64 -1.6 0
v -0.96 -1.6 0
v -1.28 -1.6 0
v -1.6 -1.6 0
v -1.92 -1.6 0
v -2.24 -1.6 0
v -2.56 -1.6 0
v -2.88 -1.6 0
v -3.2 -1.6 0
v -3.52 -1.6 0
v -3.84 -1.6 0
v -4.16 -1.6 0
v -4.48 -1.6 0
v -4.8 -1.6 0
v 0 -1.92 0
v -0.32 -1.92 0
v -0.64 -1.92 0
v -0.96 -1.92 0
v -1.28 -1.92 0
v -1.6 -1.92 0
v -1.92 -1.92 0
v -2.24 -1.92 0
v -2.56 -1.92 0
v -2.88 -1.92 0
v -3.2 -1.92 0
v -3.52 -1.92 0
v -3.84 -1.92 0
v -4.16 -1.92 0
v -4.48 -1.92 0
v -4.8 -1.92 0
v 0 -2.24 0
v -0.32 -2.24 0
v -0.64 -2.24 0
v -0.96 -2.24 0
v -1.28 -2.24 0
v -1.6 -2.24 0
v -1.92 -2.24 0
v -2.24 -2.24 0
v -2.56 -2.24 0
v -2.88 -2.24 0
v -3.2 -2.24 0
v -3.52 -2.24 0
v -3.84 -2.24 0
v -4.16 -2.24 0
v -4.48 -2.24 0
v -4.8 -2.24 0
v 0 -2.56 0
v -0.32 -2.56 0
v -0.64 -2.56 0
v -0.96 -2.56 0
v -1.28 -2.56 0
v -1.6 -2.56 0
v -1.92 -2.56 0
v -2.24 -2.56 0
v -2.56 -2.56 0
v -2.88 -2.56 0
v -3.2 -2.56 0
v -3.52 -2.56 0
v -3.84 -2.56 0
v -4.16 -2.56 0
v -4.48 -2.56 0
v -4.8 -2.56 0
v 0 -2.88 0
v -0.32 -2.88 0
v -0.64 -2.88 0
v -0.96 -2.88 0
v -1.28 -2.88 0
v -1.6 -2.88 0
v -1.92 -2.88 0
v -2.24 -2.88 0
v -2.56 -2.88 0
v -2.88 -2.88 0
v -3.2 -2.88 0
v -3.52 -2.88 0
v -3.84 -2.88 0
v -4.16 -2.88 0
v -4.48 -2.88 0
v -4.8 -2.88 0
v 0 -3.2 0
v -0.32 -3.2 0
v -0.64 -3.2 0
v -0.96 -3.2 0
v -1.28 -3.2 0
v -1.6 -3.2 0
v -1.92 -3.2 0
v -2.24 -3.2 0
v -2.56 -3.2 0
v -2.88 -3.2 0
v -3.2 -3.2 0
v -3.52 -3.2 0
v -3.84 -3.2 0
v -4.16 -3.2 0
v -4.48 -3.2 0
v -4.8 -3.2 0
v 0 -3.52 0
v -0.32 -3.52 0
v -0.64 -3.52 0
v -0.96 -3.52 0
v -1.28 -3.52 0
v -1.6 -3.52 0
v -1.92 -3.52 0
v -2.24 -3.52 0
v -2.56 -3.52 0
v -2.88 -3.52 0
v -3.2 -3.52 0
v -3.52 -3.52 0
v -3.84 -3.52 0
v -4.16 -3.52 0
v -4.48 -3.52 0
v -4.8 -3.52 0
v 0 -3.84 0
v -0.32 -3.84 0
v -0.64 -3.84 0
v -0.96 -3.84 0
v -1.28 -3.84 0
v -1.6 -3.84 0
v -1.92 -3.84 0
v -2.24 -3.84 0
v -2.56 -3.84 0
v -2.88 -3.84 0
v -3.2 -3.84 0
v -3.52 -3.84 0
v -3.84 -3.84 0
v -4.16 -3.84 0
v -4.48 -3.84 0
v -4.8 -3.84 0

# Texture cooridinates (Count = 100)
vt 0.3126221 0.8751221
vt 0.3436279 0.8751221
vt 0.3436279 0.9061279
vt 0.3126221 0.9061279
vt 0.7813721 0.8751221
vt 0.8123779 0.8751221
vt 0.8123779 0.9061279
vt 0.7813721 0.9061279
vt 0.7813721 0.9688721
vt 0.8123779 0.9688721
vt 0.8123779 0.9998779
vt 0.7813721 0.9998779
vt 0.7813721 0.8438721
vt 0.8123779 0.8438721
vt 0.8123779 0.8748779
vt 0.7813721 0.8748779
vt 0.8126221 0.9688721
vt 0.8436279 0.9688721
vt 0.8436279 0.9998779
vt 0.8126221 0.9998779
vt 0.8126221 0.8438721
vt 0.8436279 0.8438721
vt 0.8436279 0.8748779
vt 0.8126221 0.8748779
vt 0.7501221 0.8751221
vt 0.7811279 0.8751221
vt 0.7811279 0.9061279
vt 0.7501221 0.9061279
vt 0.8126221 0.8751221
vt 0.8436279 0.8751221
vt 0.8436279 0.9061279
vt 0.8126221 0.9061279
vt 0.7501221 0.9063721
vt 0.7811279 0.9063721
vt 0.7811279 0.9373779
vt 0.7501221 0.9373779
vt 0.7813721 0.9063721
vt 0.8123779 0.9063721
vt 0.8123779 0.9373779
vt 0.7813721 0.9373779
vt 0.8126221 0.9063721
vt 0.8436279 0.9063721
vt 0.8436279 0.9373779
vt 0.8126221 0.9373779
vt 0.7813721 0.9376221
vt 0.8123779 0.9376221
vt 0.8123779 0.9686279
vt 0.7813721 0.9686279
vt 0.8126221 0.9376221
vt 0.8436279 0.9376221
vt 0.8436279 0.9686279
vt 0.8126221 0.9686279
vt 0.7501221 0.8438721
vt 0.7811279 0.8438721
vt 0.7811279 0.8748779
vt 0.7501221 0.8748779
vt 0.7188721 0.8126221
vt 0.7498779 0.8126221
vt 0.7498779 0.8436279
vt 0.7188721 0.8436279
vt 0.06262207 0.7188721
vt 0.09362793 0.7188721
vt 0.09362793 0.7498779
vt 0.06262207 0.7498779
vt 0.1305569 0.03858364
vt 0.1520518 0.03858364
vt 0.1520518 0.076801
vt 0.1305569 0.076801
vt 0.152296 0.03858364
vt 0.173791 0.03858364
vt 0.173791 0.076801
vt 0.152296 0.076801
vt 0.1305569 0.0001220703
vt 0.1520518 0.0001220703
vt 0.1520518 0.0383395
vt 0.1305569 0.0383395
vt 0.152296 0.0001220703
vt 0.173791 0.0001220703
vt 0.173791 0.0383395
vt 0.152296 0.0383395
vt 0.889011 0.6751221
vt 0.9072853 0.6751221
vt 0.9072853 0.6998779
vt 0.889011 0.6998779
vt 0.9075295 0.6751221
vt 0.9258038 0.6751221
vt 0.9258038 0.6998779
vt 0.9075295 0.6998779
vt 0.889011 0.650122
vt 0.9072853 0.650122
vt 0.9072853 0.6748779
vt 0.889011 0.6748779
vt 0.9075295 0.650122
vt 0.9258038 0.650122
vt 0.9258038 0.6748779
vt 0.9075295 0.6748779
vt 0.0001220703 0.0001220703
vt 0.9998779 0.0001220703
vt 0.9998779 0.9998779
vt 0.0001220703 0.9998779

# Normal
vn 0 0 -1

# Groups (Count = 6)

g mesh_0001
f 1/1/1 2/2/1 3/3/1 4/4/1
f 2/1/1 5/2/1 6/3/1 3/4/1
f 5/1/1 7/2/1 8/3/1 6/4/1
f 7/1/1 9/2/1 10/3/1 8/4/1
f 9/1/1 11/2/1 12/3/1 10/4/1
f 11/1/1 13/2/1 14/3/1 12/4/1
f 13/1/1 15/2/1 16/3/1 14/4/1
f 15/1/1 17/2/1 18/3/1 16/4/1
f 17/1/1 19/2/1 20/3/1 18/4/1
f 19/1/1 21/2/1 22/3/1 20/4/1
f 21/1/1 23/2/1 24/3/1 22/4/1
f 23/1/1 25/2/1 26/3/1 24/4/1
f 25/1/1 27/2/1 28/3/1 26/4/1
f 27/1/1 29/2/1 30/3/1 28/4/1
f 29/1/1 31/2/1 32/3/1 30/4/1
f 33/1/1 34/2/1 2/3/1 1/4/1
f 34/1/1 35/2/1 5/3/1 2/4/1
f 35/1/1 36/2/1 7/3/1 5/4/1
f 36/1/1 37/2/1 9/3/1 7/4/1
f 37/1/1 38/2/1 11/3/1 9/4/1
f 38/1/1 39/2/1 13/3/1 11/4/1
f 39/1/1 40/2/1 15/3/1 13/4/1
f 40/1/1 41/2/1 17/3/1 15/4/1
f 41/1/1 42/2/1 19/3/1 17/4/1
f 42/1/1 43/2/1 21/3/1 19/4/1
f 43/1/1 44/2/1 23/3/1 21/4/1
f 44/1/1 45/2/1 25/3/1 23/4/1
f 45/1/1 46/2/1 27/3/1 25/4/1
f 46/1/1 47/2/1 29/3/1 27/4/1
f 47/1/1 48/2/1 31/3/1 29/4/1
f 49/1/1 50/2/1 34/3/1 33/4/1
f 50/1/1 51/2/1 35/3/1 34/4/1
f 51/1/1 52/2/1 36/3/1 35/4/1
f 52/1/1 53/2/1 37/3/1 36/4/1
f 53/1/1 54/2/1 38/3/1 37/4/1
f 54/1/1 55/2/1 39/3/1 38/4/1
f 55/1/1 56/2/1 40/3/1 39/4/1
f 56/1/1 57/2/1 41/3/1 40/4/1
f 57/1/1 58/2/1 42/3/1 41/4/1
f 58/1/1 59/2/1 43/3/1 42/4/1
f 59/1/1 60/2/1 44/3/1 43/4/1
f 60/1/1 61/2/1 45/3/1 44/4/1
f 61/1/1 62/2/1 46/3/1 45/4/1
f 62/1/1 63/2/1 47/3/1 46/4/1
f 63/1/1 64/2/1 48/3/1 47/4/1
f 65/1/1 66/2/1 50/3/1 49/4/1
f 66/1/1 67/2/1 51/3/1 50/4/1
f 67/1/1 68/2/1 52/3/1 51/4/1
f 68/1/1 69/2/1 53/3/1 52/4/1
f 69/1/1 70/2/1 54/3/1 53/4/1
f 70/1/1 71/2/1 55/3/1 54/4/1
f 71/1/1 72/2/1 56/3/1 55/4/1
f 72/1/1 73/2/1 57/3/1 56/4/1
f 73/1/1 74/2/1 58/3/1 57/4/1
f 74/1/1 75/2/1 59/3/1 58/4/1
f 75/1/1 76/2/1 60/3/1 59/4/1
f 76/1/1 77/2/1 61/3/1 60/4/1
f 77/1/1 78/2/1 62/3/1 61/4/1
f 78/1/1 79/2/1 63/3/1 62/4/1
f 79/1/1 80/2/1 64/3/1 63/4/1
f 81/1/1 82/2/1 66/3/1 65/4/1
f 82/1/1 83/2/1 67/3/1 66/4/1
f 83/1/1 84/2/1 68/3/1 67/4/1
f 84/1/1 85/2/1 69/3/1 68/4/1
f 85/1/1 86/2/1 70/3/1 69/4/1
f 86/1/1 87/2/1 71/3/1 70/4/1
f 87/1/1 88/2/1 72/3/1 71/4/1
f 88/1/1 89/2/1 73/3/1 72/4/1
f 89/1/1 90/2/1 74/3/1 73/4/1
f 90/1/1 91/2/1 75/3/1 74/4/1
f 91/1/1 92/2/1 76/3/1 75/4/1
f 92/1/1 93/2/1 77/3/1 76/4/1
f 93/1/1 94/2/1 78/3/1 77/4/1
f 94/1/1 95/2/1 79/3/1 78/4/1
f 95/1/1 96/2/1 80/3/1 79/4/1
f 97/1/1 98/2/1 82/3/1 81/4/1
f 98/1/1 99/2/1 83/3/1 82/4/1
f 99/1/1 100/2/1 84/3/1 83/4/1
f 100/1/1 101/2/1 85/3/1 84/4/1
f 101/1/1 102/2/1 86/3/1 85/4/1
f 102/1/1 103/2/1 87/3/1 86/4/1
f 103/1/1 104/2/1 88/3/1 87/4/1
f 104/1/1 105/2/1 89/3/1 88/4/1
f 105/1/1 106/2/1 90/3/1 89/4/1
f 106/1/1 107/2/1 91/3/1 90/4/1
f 107/1/1 108/2/1 92/3/1 91/4/1
f 108/1/1 109/2/1 93/3/1 92/4/1
f 109/1/1 110/2/1 94/3/1 93/4/1
f 110/1/1 111/2/1 95/3/1 94/4/1
f 111/1/1 112/2/1 96/3/1 95/4/1
f 113/1/1 114/2/1 98/3/1 97/4/1
f 114/1/1 115/2/1 99/3/1 98/4/1
f 115/1/1 116/2/1 100/3/1 99/4/1
f 116/1/1 117/2/1 101/3/1 100/4/1
f 117/1/1 118/2/1 102/3/1 101/4/1
f 118/1/1 119/2/1 103/3/1 102/4/1
f 119/1/1 120/2/1 104/3/1 103/4/1
f 120/1/1 121/2/1 105/3/1 104/4/1
f 121/1/1 122/2/1 106/3/1 105/4/1
f 122/1/1 123/2/1 107/3/1 106/4/1
f 123/1/1 124/2/1 108/3/1 107/4/1
f 124/1/1 125/2/1 109/3/1 108/4/1
f 125/1/1 126/2/1 110/3/1 109/4/1
f 126/1/1 127/2/1 111/3/1 110/4/1
f 127/1/1 128/2/1 112/3/1 111/4/1
f 129/1/1 130/2/1 114/3/1 113/4/1
f 130/1/1 131/2/1 115/3/1 114/4/1
f 131/1/1 132/2/1 116/3/1 115/4/1
f 132/1/1 133/2/1 117/3/1 116/4/1
f 133/1/1 134/2/1 118/3/1 117/4/1
f 134/1/1 135/2/1 119/3/1 118/4/1
f 135/1/1 136/2/1 120/3/1 119/4/1
f 136/1/1 137/2/1 121/3/1 120/4/1
f 137/1/1 138/2/1 122/3/1 121/4/1
f 138/1/1 139/2/1 123/3/1 122/4/1
f 139/1/1 140/2/1 124/3/1 123/4/1
f 140/1/1 141/2/1 125/3/1 124/4/1
f 141/1/1 142/2/1 126/3/1 125/4/1
f 142/1/1 143/2/1 127/3/1 126/4/1
f 143/1/1 144/2/1 128/3/1 127/4/1
f 145/1/1 146/2/1 130/3/1 129/4/1
f 146/1/1 147/2/1 131/3/1 130/4/1
f 147/1/1 148/2/1 132/3/1 131/4/1
f 148/1/1 149/2/1 133/3/1 132/4/1
f 149/1/1 150/2/1 134/3/1 133/4/1
f 150/1/1 151/2/1 135/3/1 134/4/1
f 151/1/1 152/2/1 136/3/1 135/4/1
f 152/1/1 153/2/1 137/3/1 136/4/1
f 153/1/1 154/2/1 138/3/1 137/4/1
f 154/1/1 155/2/1 139/3/1 138/4/1
f 155/1/1 156/2/1 140/3/1 139/4/1
f 156/1/1 157/2/1 141/3/1 140/4/1
f 157/1/1 158/2/1 142/3/1 141/4/1
f 158/1/1 159/2/1 143/3/1 142/4/1
f 159/1/1 160/2/1 144/3/1 143/4/1
f 161/1/1 162/2/1 146/3/1 145/4/1
f 162/1/1 163/2/1 147/3/1 146/4/1
f 163/1/1 164/2/1 148/3/1 147/4/1
f 164/1/1 165/2/1 149/3/1 148/4/1
f 165/1/1 166/2/1 150/3/1 149/4/1
f 166/1/1 167/2/1 151/3/1 150/4/1
f 167/1/1 168/2/1 152/3/1 151/4/1
f 168/1/1 169/2/1 153/3/1 152/4/1
f 169/1/1 170/2/1 154/3/1 153/4/1
f 170/1/1 171/2/1 155/3/1 154/4/1
f 171/1/1 172/2/1 156/3/1 155/4/1
f 172/1/1 173/2/1 157/3/1 156/4/1
f 173/1/1 174/2/1 158/3/1 157/4/1
f 174/1/1 175/2/1 159/3/1 158/4/1
f 175/1/1 176/2/1 160/3/1 159/4/1
f 177/1/1 178/2/1 162/3/1 161/4/1
f 178/1/1 179/2/1 163/3/1 162/4/1
f 179/1/1 180/2/1 164/3/1 163/4/1
f 180/1/1 181/2/1 165/3/1 164/4/1
f 181/1/1 182/2/1 166/3/1 165/4/1
f 182/1/1 183/2/1 167/3/1 166/4/1
f 183/1/1 184/2/1 168/3/1 167/4/1
f 184/1/1 185/2/1 169/3/1 168/4/1
f 185/1/1 186/2/1 170/3/1 169/4/1
f 186/1/1 187/2/1 171/3/1 170/4/1
f 187/1/1 188/2/1 172/3/1 171/4/1
f 188/1/1 189/2/1 173/3/1 172/4/1
f 189/1/1 190/2/1 174/3/1 173/4/1
f 190/1/1 191/2/1 175/3/1 174/4/1
f 191/1/1 192/2/1 176/3/1 175/4/1
f 193/1/1 194/2/1 178/3/1 177/4/1
f 194/1/1 195/2/1 179/3/1 178/4/1
f 195/1/1 196/2/1 180/3/1 179/4/1
f 196/1/1 197/2/1 181/3/1 180/4/1
f 197/1/1 198/2/1 182/3/1 181/4/1
f 198/1/1 199/2/1 183/3/1 182/4/1
f 199/1/1 200/2/1 184/3/1 183/4/1
f 200/1/1 201/2/1 185/3/1 184/4/1
f 201/1/1 202/2/1 186/3/1 185/4/1
f 202/1/1 203/2/1 187/3/1 186/4/1
f 203/1/1 204/2/1 188/3/1 187/4/1
f 204/1/1 205/2/1 189/3/1 188/4/1
f 205/1/1 206/2/1 190/3/1 189/4/1
f 206/1/1 207/2/1 191/3/1 190/4/1
f 207/1/1 208/2/1 192/3/1 191/4/1

g mesh_0002
f 1/5/1 2/6/1 3/7/1 4/8/1
f 2/9/1 5/10/1 6/11/1 3/12/1
f 5/13/1 7/14/1 8/15/1 6/16/1
f 7/13/1 9/14/1 10/15/1 8/16/1
f 9/13/1 11/14/1 12/15/1 10/16/1
f 11/13/1 13/14/1 14/15/1 12/16/1
f 13/13/1 15/14/1 16/15/1 14/16/1
f 15/13/1 17/14/1 18/15/1 16/16/1
f 17/13/1 19/14/1 20/15/1 18/16/1
f 19/13/1 21/14/1 22/15/1 20/16/1
f 21/13/1 23/14/1 24/15/1 22/16/1
f 23/13/1 25/14/1 26/15/1 24/16/1
f 25/13/1 27/14/1 28/15/1 26/16/1
f 27/13/1 29/14/1 30/15/1 28/16/1
f 29/17/1 31/18/1 32/19/1 30/20/1
f 33/9/1 34/10/1 2/11/1 1/12/1
f 34/21/1 35/22/1 5/23/1 2/24/1
f 47/25/1 48/26/1 31/27/1 29/28/1
f 49/29/1 50/30/1 34/31/1 33/32/1
f 53/33/1 54/34/1 38/35/1 37/36/1
f 54/37/1 55/38/1 39/39/1 38/40/1
f 55/37/1 56/38/1 40/39/1 39/40/1
f 56/37/1 57/38/1 41/39/1 40/40/1
f 57/37/1 58/38/1 42/39/1 41/40/1
f 58/37/1 59/38/1 43/39/1 42/40/1
f 59/37/1 60/38/1 44/39/1 43/40/1
f 60/41/1 61/42/1 45/43/1 44/44/1
f 63/25/1 64/26/1 48/27/1 47/28/1
f 65/29/1 66/30/1 50/31/1 49/32/1
f 69/25/1 70/26/1 54/27/1 53/28/1
f 70/9/1 71/10/1 55/11/1 54/12/1
f 71/13/1 72/14/1 56/15/1 55/16/1
f 72/13/1 73/14/1 57/15/1 56/16/1
f 73/13/1 74/14/1 58/15/1 57/16/1
f 74/13/1 75/14/1 59/15/1 58/16/1
f 75/17/1 76/18/1 60/19/1 59/20/1
f 76/29/1 77/30/1 61/31/1 60/32/1
f 79/25/1 80/26/1 64/27/1 63/28/1
f 81/29/1 82/30/1 66/31/1 65/32/1
f 85/25/1 86/26/1 70/27/1 69/28/1
f 86/29/1 87/30/1 71/31/1 70/32/1
f 91/25/1 92/26/1 76/27/1 75/28/1
f 92/29/1 93/30/1 77/31/1 76/32/1
f 95/25/1 96/26/1 80/27/1 79/28/1
f 97/29/1 98/30/1 82/31/1 81/32/1
f 101/25/1 102/26/1 86/27/1 85/28/1
f 102/29/1 103/30/1 87/31/1 86/32/1
f 107/25/1 108/26/1 92/27/1 91/28/1
f 108/29/1 109/30/1 93/31/1 92/32/1
f 111/25/1 112/26/1 96/27/1 95/28/1
f 113/29/1 114/30/1 98/31/1 97/32/1
f 117/25/1 118/26/1 102/27/1 101/28/1
f 118/45/1 119/46/1 103/47/1 102/48/1
f 119/37/1 120/38/1 104/39/1 103/40/1
f 120/37/1 121/38/1 105/39/1 104/40/1
f 121/37/1 122/38/1 106/39/1 105/40/1
f 122/37/1 123/38/1 107/39/1 106/40/1
f 123/49/1 124/50/1 108/51/1 107/52/1
f 124/29/1 125/30/1 109/31/1 108/32/1
f 127/25/1 128/26/1 112/27/1 111/28/1
f 129/29/1 130/30/1 114/31/1 113/32/1
f 133/53/1 134/54/1 118/55/1 117/56/1
f 134/13/1 135/14/1 119/15/1 118/16/1
f 135/13/1 136/14/1 120/15/1 119/16/1
f 136/13/1 137/14/1 121/15/1 120/16/1
f 137/13/1 138/14/1 122/15/1 121/16/1
f 138/13/1 139/14/1 123/15/1 122/16/1
f 139/13/1 140/14/1 124/15/1 123/16/1
f 140/21/1 141/22/1 125/23/1 124/24/1
f 143/25/1 144/26/1 128/27/1 127/28/1
f 145/29/1 146/30/1 130/31/1 129/32/1
f 159/25/1 160/26/1 144/27/1 143/28/1
f 161/29/1 162/30/1 146/31/1 145/32/1
f 175/25/1 176/26/1 160/27/1 159/28/1
f 177/45/1 178/46/1 162/47/1 161/48/1
f 178/37/1 179/38/1 163/39/1 162/40/1
f 179/41/1 180/42/1 164/43/1 163/44/1
f 183/33/1 184/34/1 168/35/1 167/36/1
f 184/37/1 185/38/1 169/39/1 168/40/1
f 185/37/1 186/38/1 170/39/1 169/40/1
f 186/37/1 187/38/1 171/39/1 170/40/1
f 187/37/1 188/38/1 172/39/1 171/40/1
f 188/37/1 189/38/1 173/39/1 172/40/1
f 189/37/1 190/38/1 174/39/1 173/40/1
f 190/37/1 191/38/1 175/39/1 174/40/1
f 191/49/1 192/50/1 176/51/1 175/52/1
f 193/5/1 194/6/1 178/7/1 177/8/1
f 194/5/1 195/6/1 179/7/1 178/8/1
f 195/45/1 196/46/1 180/47/1 179/48/1
f 196/37/1 197/38/1 181/39/1 180/40/1
f 197/37/1 198/38/1 182/39/1 181/40/1
f 198/37/1 199/38/1 183/39/1 182/40/1
f 199/49/1 200/50/1 184/51/1 183/52/1
f 200/5/1 201/6/1 185/7/1 184/8/1
f 201/5/1 202/6/1 186/7/1 185/8/1
f 202/5/1 203/6/1 187/7/1 186/8/1
f 203/5/1 204/6/1 188/7/1 187/8/1
f 204/5/1 205/6/1 189/7/1 188/8/1
f 205/5/1 206/6/1 190/7/1 189/8/1
f 206/5/1 207/6/1 191/7/1 190/8/1
f 207/5/1 208/6/1 192/7/1 191/8/1

g mesh_0003
f 13/57/1 15/58/1 16/59/1 14/60/1
f 35/57/1 36/58/1 7/59/1 5/60/1
f 78/57/1 79/58/1 63/59/1 62/60/1
f 131/57/1 132/58/1 116/59/1 115/60/1
f 132/57/1 133/58/1 117/59/1 116/60/1
f 133/57/1 134/58/1 118/59/1 117/60/1
f 146/57/1 147/58/1 131/59/1 130/60/1
f 147/57/1 148/58/1 132/59/1 131/60/1
f 148/57/1 149/58/1 133/59/1 132/60/1
f 162/57/1 163/58/1 147/59/1 146/60/1
f 163/57/1 164/58/1 148/59/1 147/60/1
f 173/57/1 174/58/1 158/59/1 157/60/1

g mesh_0004
f 71/61/1 72/62/1 56/63/1 55/64/1
f 72/61/1 73/62/1 57/63/1 56/64/1
f 149/61/1 150/62/1 134/63/1 133/64/1

g mesh_0005
f 165/65/1 166/66/1 150/67/1 149/68/1
f 166/69/1 167/70/1 151/71/1 150/72/1
f 181/73/1 182/74/1 166/75/1 165/76/1
f 182/77/1 183/78/1 167/79/1 166/80/1

g mesh_0006
f 74/81/1 75/82/1 59/83/1 58/84/1
f 75/85/1 76/86/1 60/87/1 59/88/1
f 90/89/1 91/90/1 75/91/1 74/92/1
f 91/93/1 92/94/1 76/95/1 75/96/1
f 130/81/1 131/82/1 115/83/1 114/84/1
f 131/85/1 132/86/1 116/87/1 115/88/1
f 146/89/1 147/90/1 131/91/1 130/92/1
f 147/93/1 148/94/1 132/95/1 131/96/1
f 179/81/1 180/82/1 164/83/1 163/84/1
f 180/85/1 181/86/1 165/87/1 164/88/1
f 195/89/1 196/90/1 180/91/1 179/92/1
f 196/93/1 197/94/1 181/95/1 180/96/1

g mesh_0007
f 1/97/1 2/98/1 3/99/1 4/100/1
f 2/97/1 5/98/1 6/99/1 3/100/1
f 5/97/1 7/98/1 8/99/1 6/100/1
f 7/97/1 9/98/1 10/99/1 8/100/1
f 9/97/1 11/98/1 12/99/1 10/100/1
f 11/97/1 13/98/1 14/99/1 12/100/1
f 13/97/1 15/98/1 16/99/1 14/100/1
f 15/97/1 17/98/1 18/99/1 16/100/1
f 17/97/1 19/98/1 20/99/1 18/100/1
f 19/97/1 21/98/1 22/99/1 20/100/1
f 21/97/1 23/98/1 24/99/1 22/100/1
f 23/97/1 25/98/1 26/99/1 24/100/1
f 25/97/1 27/98/1 28/99/1 26/100/1
f 27/97/1 29/98/1 30/99/1 28/100/1
f 29/97/1 31/98/1 32/99/1 30/100/1
f 33/97/1 34/98/1 2/99/1 1/100/1
f 35/97/1 36/98/1 7/99/1 5/100/1
f 47/97/1 48/98/1 31/99/1 29/100/1
f 49/97/1 50/98/1 34/99/1 33/100/1
f 53/97/1 54/98/1 38/99/1 37/100/1
f 54/97/1 55/98/1 39/99/1 38/100/1
f 55/97/1 56/98/1 40/99/1 39/100/1
f 56/97/1 57/98/1 41/99/1 40/100/1
f 57/97/1 58/98/1 42/99/1 41/100/1
f 58/97/1 59/98/1 43/99/1 42/100/1
f 59/97/1 60/98/1 44/99/1 43/100/1
f 63/97/1 64/98/1 48/99/1 47/100/1
f 65/97/1 66/98/1 50/99/1 49/100/1
f 69/97/1 70/98/1 54/99/1 53/100/1
f 70/97/1 71/98/1 55/99/1 54/100/1
f 71/97/1 72/98/1 56/99/1 55/100/1
f 72/97/1 73/98/1 57/99/1 56/100/1
f 73/97/1 74/98/1 58/99/1 57/100/1
f 74/97/1 75/98/1 59/99/1 58/100/1
f 75/97/1 76/98/1 60/99/1 59/100/1
f 78/97/1 79/98/1 63/99/1 62/100/1
f 79/97/1 80/98/1 64/99/1 63/100/1
f 81/97/1 82/98/1 66/99/1 65/100/1
f 85/97/1 86/98/1 70/99/1 69/100/1
f 86/97/1 87/98/1 71/99/1 70/100/1
f 91/97/1 92/98/1 76/99/1 75/100/1
f 95/97/1 96/98/1 80/99/1 79/100/1
f 97/97/1 98/98/1 82/99/1 81/100/1
f 101/97/1 102/98/1 86/99/1 85/100/1
f 102/97/1 103/98/1 87/99/1 86/100/1
f 107/97/1 108/98/1 92/99/1 91/100/1
f 111/97/1 112/98/1 96/99/1 95/100/1
f 113/97/1 114/98/1 98/99/1 97/100/1
f 117/97/1 118/98/1 102/99/1 101/100/1
f 118/97/1 119/98/1 103/99/1 102/100/1
f 119/97/1 120/98/1 104/99/1 103/100/1
f 120/97/1 121/98/1 105/99/1 104/100/1
f 121/97/1 122/98/1 106/99/1 105/100/1
f 122/97/1 123/98/1 107/99/1 106/100/1
f 123/97/1 124/98/1 108/99/1 107/100/1
f 127/97/1 128/98/1 112/99/1 111/100/1
f 129/97/1 130/98/1 114/99/1 113/100/1
f 131/97/1 132/98/1 116/99/1 115/100/1
f 132/97/1 133/98/1 117/99/1 116/100/1
f 133/97/1 134/98/1 118/99/1 117/100/1
f 143/97/1 144/98/1 128/99/1 127/100/1
f 145/97/1 146/98/1 130/99/1 129/100/1
f 146/97/1 147/98/1 131/99/1 130/100/1
f 147/97/1 148/98/1 132/99/1 131/100/1
f 148/97/1 149/98/1 133/99/1 132/100/1
f 149/97/1 150/98/1 134/99/1 133/100/1
f 159/97/1 160/98/1 144/99/1 143/100/1
f 161/97/1 162/98/1 146/99/1 145/100/1
f 162/97/1 163/98/1 147/99/1 146/100/1
f 163/97/1 164/98/1 148/99/1 147/100/1
f 173/97/1 174/98/1 158/99/1 157/100/1
f 175/97/1 176/98/1 160/99/1 159/100/1
f 177/97/1 178/98/1 162/99/1 161/100/1
f 178/97/1 179/98/1 163/99/1 162/100/1
f 184/97/1 185/98/1 169/99/1 168/100/1
f 185/97/1 186/98/1 170/99/1 169/100/1
f 186/97/1 187/98/1 171/99/1 170/100/1
f 187/97/1 188/98/1 172/99/1 171/100/1
f 188/97/1 189/98/1 173/99/1 172/100/1
f 189/97/1 190/98/1 174/99/1 173/100/1
f 190/97/1 191/98/1 175/99/1 174/100/1
f 191/97/1 192/98/1 176/99/1 175/100/1
f 193/97/1 194/98/1 178/99/1 177/100/1
f 194/97/1 195/98/1 179/99/1 178/100/1
f 195/97/1 196/98/1 180/99/1 179/100/1
f 196/97/1 197/98/1 181/99/1 180/100/1
f 197/97/1 198/98/1 182/99/1 181/100/1
f 198/97/1 199/98/1 183/99/1 182/100/1
f 199/97/1 200/98/1 184/99/1 183/100/1
f 200/97/1 201/98/1 185/99/1 184/100/1
f 201/97/1 202/98/1 186/99/1 185/100/1
f 202/97/1 203/98/1 187/99/1 186/100/1
f 203/97/1 204/98/1 188/99/1 187/100/1
f 204/97/1 205/98/1 189/99/1 188/100/1
f 205/97/1 206/98/1 190/99/1 189/100/1
f 206/97/1 207/98/1 191/99/1 190/100/1
f 207/97/1 208/98/1 192/99/1 191/100/1

